# xmcd
#
# Track frame offsets: 
#        150
#        17755
#        33727
#        56400
#        68935
#        85040
#        105220
#        125172
#        139617
#        161475
#
# Disc length: 2211 seconds
#
# Revision: 18
# Processed by: cddbd v1.5.2PL0 Copyright (c) Steve Scherf et al.
# Submitted via: ExactAudioCopy v0.95a5
#
DISCID=7e08a10a
DTITLE=Take 6 - Take 6
DYEAR=1988
DGENRE=A Cappella
TTITLE0=Gold Mine
TTITLE1=Spread Love
TTITLE2=If We Ever
TTITLE3=A Quiet Place
TTITLE4=Mary
TTITLE5=David and Goliath
TTITLE6=Get Away, Jordan
TTITLE7=He Never Sleeps
TTITLE8=Milky-White Way
TTITLE9=Let The Words
EXTD=YEAR: 1988 ID3G: 123
EXTT0=
EXTT1=
EXTT2=
EXTT3=
EXTT4=
EXTT5=
EXTT6=
EXTT7=
EXTT8=
EXTT9=
PLAYORDER=
